<?xml version="1.0" standalone="no"?>
<!DOCTYPE svg PUBLIC "-//W3C//DTD SVG 20010904//EN"
 "http://www.w3.org/TR/2001/REC-SVG-20010904/DTD/svg10.dtd">
<svg version="1.0" xmlns="http://www.w3.org/2000/svg"
 width="852.000000pt" height="755.000000pt" viewBox="0 0 852.000000 755.000000"
 preserveAspectRatio="xMidYMid meet">

<g transform="translate(0.000000,755.000000) scale(0.100000,-0.100000)"
fill="#000000" stroke="none">
<path d="M2793 7417 c-47 -23 -47 -24 -34 -61 8 -19 15 -23 32 -19 21 6 21 5
18 -108 l-4 -114 36 -3 36 -3 6 158 c3 87 5 158 4 159 -18 12 -60 8 -94 -9z"/>
<path d="M2560 7417 c-13 -7 -35 -28 -47 -46 -45 -66 -22 -223 38 -265 13 -9
41 -16 62 -16 31 0 46 7 73 34 33 33 34 36 34 116 0 97 -23 150 -76 175 -39
18 -51 19 -84 2z m64 -79 c34 -56 26 -183 -11 -176 -27 5 -43 47 -43 114 0 79
25 108 54 62z"/>
<path d="M2316 7367 l-39 -33 18 -27 c18 -29 30 -33 40 -17 12 19 23 1 30 -47
3 -27 10 -64 15 -83 5 -19 12 -48 15 -63 5 -26 9 -28 33 -22 15 3 31 10 36 15
7 7 -9 99 -45 263 -10 42 -14 47 -37 47 -16 0 -44 -14 -66 -33z"/>
<path d="M3055 7386 c-66 -29 -117 -115 -119 -199 -1 -52 2 -61 27 -83 72 -62
152 -29 213 88 42 82 29 164 -31 193 -40 18 -51 18 -90 1z m70 -76 c11 -17
-14 -84 -45 -122 -33 -40 -64 -49 -74 -22 -7 19 32 111 58 137 19 19 51 23 61
7z"/>
<path d="M1864 7323 c-17 -8 -39 -31 -48 -50 -35 -73 -10 -218 45 -257 13 -9
41 -16 62 -16 31 0 46 7 73 34 33 33 34 36 34 113 0 99 -22 152 -73 176 -42
20 -53 20 -93 0z m70 -75 c35 -56 27 -184 -11 -176 -27 5 -43 47 -43 114 0 79
25 107 54 62z"/>
<path d="M2076 7307 l-39 -33 18 -27 c18 -29 30 -33 40 -17 11 18 22 2 29 -42
4 -24 14 -74 23 -111 15 -66 17 -68 42 -62 14 4 30 10 35 15 4 4 -6 74 -23
155 -17 80 -31 148 -31 151 0 2 -12 4 -27 4 -17 0 -44 -14 -67 -33z"/>
<path d="M1675 7280 c-20 -8 -65 -62 -65 -77 0 -4 7 -16 14 -26 12 -15 18 -16
34 -8 22 12 25 6 69 -129 26 -78 28 -81 63 -68 17 5 30 15 30 21 0 6 -21 75
-47 154 -49 147 -53 152 -98 133z"/>
<path d="M3262 7217 c-20 -21 -20 -24 -6 -39 15 -15 9 -21 -79 -80 l-95 -63
14 -28 c8 -15 21 -27 30 -27 15 0 248 152 259 169 9 16 -16 48 -56 70 -45 26
-41 26 -67 -2z"/>
<path d="M1451 7143 c-97 -48 -63 -197 62 -273 77 -47 167 -5 167 79 0 54 -12
82 -57 132 -34 38 -101 79 -128 79 -5 0 -25 -8 -44 -17z m98 -98 c61 -55 80
-126 34 -125 -37 1 -113 90 -113 133 0 38 31 35 79 -8z"/>
<path d="M3310 7046 c-19 -13 -50 -45 -69 -71 -28 -39 -35 -58 -35 -97 -1 -44
3 -53 32 -79 39 -35 76 -37 131 -9 60 30 131 128 131 180 0 29 -27 77 -49 90
-35 18 -104 12 -141 -14z m110 -69 c0 -32 -52 -103 -92 -123 -30 -15 -32 -15
-44 1 -11 15 -10 23 2 46 40 79 134 131 134 76z"/>
<path d="M1247 6951 c-24 -40 -22 -97 2 -111 27 -14 41 -13 41 5 0 27 20 16
100 -50 43 -36 84 -65 91 -65 8 0 22 11 31 25 l18 24 -121 100 c-66 56 -126
101 -133 101 -6 0 -19 -13 -29 -29z"/>
<path d="M4190 6954 c-150 -13 -336 -43 -450 -73 -41 -10 -77 -17 -79 -15 -2
2 2 18 9 35 12 28 12 33 -5 45 -10 8 -41 14 -67 14 -43 0 -50 -3 -58 -26 -14
-36 -13 -44 10 -44 11 0 20 -6 20 -13 0 -28 -29 -47 -115 -77 -158 -55 -246
-92 -415 -177 -826 -412 -1463 -1192 -1714 -2098 -39 -140 -61 -233 -77 -327
-10 -60 -14 -68 -33 -68 -12 0 -31 -7 -42 -15 -31 -23 -44 -18 -44 18 0 24 -8
41 -30 62 -27 26 -33 27 -85 22 -51 -5 -56 -4 -49 11 4 9 9 32 12 49 3 27 -2
39 -32 69 -34 34 -40 36 -86 32 -98 -10 -207 -114 -196 -187 3 -19 18 -47 33
-63 25 -26 33 -29 78 -26 28 3 68 12 90 22 39 18 40 18 24 0 -59 -71 -50 -167
18 -199 43 -21 86 -12 135 26 l38 30 0 -60 c0 -49 4 -65 25 -89 14 -17 39 -32
57 -36 l33 -6 1 -232 c2 -447 84 -879 241 -1268 382 -947 1136 -1659 2073
-1958 322 -103 628 -150 975 -150 535 0 1025 122 1505 375 571 300 1056 785
1371 1371 201 373 310 712 386 1197 25 160 25 742 0 900 -47 296 -120 596
-177 730 -4 11 -27 70 -51 130 -54 140 -187 400 -269 530 -266 417 -597 756
-995 1020 -612 405 -1329 585 -2065 519z m645 -119 c437 -49 853 -190 1241
-422 727 -435 1264 -1159 1478 -1993 72 -280 103 -524 105 -830 9 -963 -402
-1886 -1119 -2514 -339 -297 -697 -501 -1125 -639 -169 -55 -400 -104 -610
-129 -222 -26 -720 -8 -852 32 -24 7 -19 8 27 9 30 1 87 10 125 22 41 12 120
24 193 29 121 8 124 9 200 52 42 25 109 57 149 72 100 38 149 79 261 218 53
66 112 139 131 162 46 56 61 96 61 161 0 58 19 116 48 148 9 10 41 30 70 44
106 50 139 133 128 327 -7 120 -7 121 20 161 47 70 257 234 389 303 93 49 156
113 184 185 17 47 21 80 21 179 0 67 5 149 11 183 17 97 -6 156 -81 208 -23
16 -25 22 -22 90 2 63 -1 79 -29 135 -23 48 -30 73 -26 97 8 50 65 133 168
242 50 54 107 125 126 158 19 33 67 94 108 135 40 41 101 107 136 147 35 39
88 90 117 113 53 41 72 72 107 173 9 26 27 60 40 75 35 42 63 97 71 139 10 53
29 95 75 168 51 81 69 135 69 207 0 50 4 65 25 90 14 16 25 38 25 48 0 35 -58
88 -115 106 l-53 17 -58 -35 c-46 -28 -73 -37 -124 -41 -64 -5 -169 -36 -263
-76 -27 -12 -53 -21 -57 -21 -5 0 -15 19 -22 42 -17 56 -113 153 -267 270 -41
31 -82 73 -108 112 -23 35 -68 85 -99 112 -37 32 -63 65 -76 94 -10 25 -41 66
-68 92 -43 40 -50 51 -50 85 0 52 -36 122 -109 210 -51 62 -59 79 -65 127 -8
64 -41 113 -109 166 -25 19 -57 58 -72 85 l-28 50 37 37 c34 34 36 40 36 99 0
61 -19 129 -56 201 -27 52 -86 84 -207 113 -124 30 -146 29 -243 -10 -46 -19
-75 -24 -97 -20 -81 16 -189 50 -257 81 -48 21 -92 34 -118 34 -35 0 -44 4
-54 24 -6 14 -24 31 -41 40 l-31 15 26 6 c103 26 471 26 703 0z m-540 -220
c55 -30 226 -81 300 -90 54 -7 100 2 180 33 l50 20 90 -22 c50 -12 100 -27
111 -34 27 -14 63 -89 70 -146 6 -40 5 -43 -24 -55 -40 -17 -64 -45 -64 -74 0
-40 74 -176 120 -220 110 -105 112 -107 112 -147 0 -55 11 -77 75 -155 69 -83
105 -155 105 -209 0 -35 6 -46 50 -87 27 -25 59 -66 69 -90 24 -54 33 -64 95
-114 27 -22 69 -70 92 -107 28 -43 63 -82 101 -109 93 -68 242 -200 247 -218
2 -9 7 -32 10 -52 4 -20 15 -44 26 -54 27 -25 114 -31 165 -12 227 83 241 87
298 87 50 0 68 5 109 31 51 33 66 34 50 2 -5 -10 -12 -54 -15 -98 -4 -74 -8
-86 -56 -165 -28 -47 -62 -122 -76 -167 -14 -45 -36 -94 -48 -110 -40 -49 -57
-81 -80 -150 -17 -52 -28 -71 -49 -81 -14 -7 -66 -56 -114 -110 -49 -53 -125
-135 -169 -182 -45 -47 -96 -110 -113 -140 -17 -30 -74 -102 -127 -160 -185
-201 -226 -318 -155 -437 19 -31 23 -51 21 -109 -2 -89 5 -108 69 -172 39 -39
50 -57 45 -70 -4 -9 -11 -94 -14 -187 -8 -219 -17 -235 -169 -317 -130 -71
-358 -253 -412 -330 l-35 -50 2 -147 c4 -196 -4 -218 -94 -263 -100 -50 -140
-115 -150 -242 -6 -73 -18 -107 -50 -141 -10 -11 -63 -76 -117 -144 -103 -129
-147 -165 -244 -201 -30 -12 -93 -41 -139 -65 -80 -42 -89 -45 -165 -45 -53 0
-117 -9 -186 -26 -130 -32 -161 -26 -233 46 l-48 48 2 79 2 79 -56 70 c-71 87
-174 240 -199 296 -11 24 -20 64 -20 89 0 25 -9 79 -19 120 -11 41 -25 110
-31 154 -15 105 -42 161 -129 270 -145 183 -169 302 -101 500 11 32 24 63 29
69 5 6 14 31 21 55 6 24 25 71 42 105 19 39 32 83 35 122 5 55 2 69 -31 141
-30 67 -36 92 -36 149 0 78 -14 111 -114 272 -64 103 -130 189 -212 273 -60
63 -60 64 20 94 98 36 297 141 406 214 365 244 670 612 834 1006 21 50 42 99
47 110 55 121 123 409 139 588 35 387 -26 747 -185 1093 -48 103 -50 114 -27
114 10 0 41 -11 67 -25z m-1199 -475 c35 -14 81 -55 100 -92 8 -15 14 -50 14
-79 0 -70 -29 -120 -91 -154 -43 -23 -48 -29 -44 -53 5 -27 15 -107 37 -279 6
-55 15 -93 22 -92 6 0 51 19 101 42 l89 43 1 66 c0 59 4 71 30 104 41 50 89
74 148 74 60 0 117 -28 154 -77 25 -32 28 -45 28 -107 0 -59 -4 -77 -24 -105
-31 -43 -92 -71 -158 -71 -29 0 -53 -1 -53 -3 0 -1 -16 -41 -35 -87 -19 -46
-35 -90 -35 -97 0 -7 12 -13 28 -14 15 0 52 -2 82 -4 30 -3 113 -6 185 -7 123
-3 130 -2 133 17 11 58 103 125 171 125 102 0 191 -85 191 -183 0 -87 -47
-149 -133 -177 -51 -16 -126 3 -177 47 -21 18 -43 33 -49 33 -10 0 -109 -40
-381 -155 -53 -22 -55 -24 -52 -56 10 -111 -64 -194 -183 -206 -61 -6 -50 11
-130 -203 -26 -69 -58 -154 -71 -189 -24 -61 -24 -65 -8 -74 58 -33 103 -125
89 -185 -10 -46 -56 -110 -91 -127 -40 -19 -146 -20 -182 -1 -57 30 -102 103
-102 166 0 63 67 151 126 166 13 3 24 8 24 10 0 2 -6 50 -14 106 -8 57 -20
147 -27 201 -6 53 -16 97 -21 97 -5 0 -52 -20 -104 -45 l-95 -45 6 -43 c11
-69 -32 -149 -95 -182 -94 -47 -206 -8 -255 89 -31 61 -31 93 -3 152 30 65 80
95 159 97 l63 2 43 99 c24 55 43 100 43 102 0 1 -53 5 -117 8 -65 3 -162 9
-215 12 l-96 5 -20 -44 c-66 -149 -282 -139 -347 17 -46 109 44 235 167 236
58 0 93 -14 138 -56 l35 -33 85 35 c133 54 249 104 317 135 l61 28 -5 40 c-7
48 10 94 46 134 38 42 73 57 134 57 l53 0 22 63 c23 69 66 185 106 291 14 37
26 75 26 83 0 8 -14 26 -30 40 -161 135 -11 377 186 303z m-2199 -1846 c10
-26 -13 -59 -63 -93 -52 -34 -87 -37 -92 -8 -4 22 18 49 72 88 43 32 74 37 83
13z m160 -160 c9 -23 -26 -91 -64 -124 -39 -34 -46 -36 -64 -14 -11 13 -9 23
11 60 39 74 102 116 117 78z m159 -161 c-10 -106 -31 -140 -56 -92 -20 36 22
169 53 169 6 0 7 -27 3 -77z m219 -517 c223 -64 505 -106 717 -106 196 0 450
33 608 80 19 5 42 10 51 10 19 0 187 -186 250 -278 26 -37 70 -107 98 -157 48
-85 51 -93 51 -162 0 -62 5 -83 36 -148 41 -87 41 -100 -6 -201 -16 -36 -33
-77 -36 -92 -4 -15 -10 -31 -14 -37 -4 -5 -23 -53 -41 -105 -28 -84 -32 -108
-33 -205 -1 -162 25 -226 165 -402 74 -94 89 -125 101 -223 5 -41 15 -97 23
-125 7 -27 19 -88 25 -135 7 -47 18 -100 25 -118 15 -35 178 -275 226 -333 26
-31 28 -39 19 -63 -33 -89 36 -202 170 -275 72 -40 46 -40 -114 -1 -582 143
-1084 432 -1516 876 -546 561 -885 1332 -926 2107 -7 125 -6 130 12 124 10 -3
60 -17 109 -31z"/>
<path d="M6590 2549 c-14 -12 -33 -27 -43 -34 -10 -7 -24 -29 -31 -48 -6 -19
-26 -47 -44 -62 -17 -14 -46 -48 -64 -75 -45 -67 -98 -106 -180 -132 -66 -21
-148 -77 -148 -100 0 -5 -14 -42 -31 -81 -29 -66 -31 -76 -24 -142 12 -114 11
-119 -41 -192 l-49 -68 -1 -126 c0 -69 -3 -130 -6 -135 -4 -5 -2 -31 3 -56 8
-35 21 -56 49 -82 52 -47 93 -53 174 -27 36 12 86 21 112 21 54 0 107 23 126
53 8 12 24 49 37 82 14 33 44 87 67 121 28 39 54 94 74 157 17 53 44 122 59
154 37 77 48 113 66 212 8 46 16 85 17 85 2 1 15 7 31 14 57 24 89 136 53 187
-7 11 -16 48 -20 83 -13 116 -72 212 -129 212 -18 -1 -43 -10 -57 -21z m64
-150 c3 -17 6 -55 6 -83 0 -30 6 -61 16 -74 16 -23 12 -42 -10 -42 -7 0 -24
-11 -38 -23 -20 -19 -27 -38 -33 -88 -10 -90 -32 -187 -55 -236 -47 -102 -59
-132 -79 -198 -12 -43 -40 -98 -70 -143 -27 -40 -57 -95 -66 -122 -20 -61 -29
-68 -87 -68 -25 -1 -71 -10 -102 -21 -54 -19 -57 -19 -78 -2 -21 18 -22 20 -9
99 9 64 9 90 0 121 -11 38 -10 43 17 82 68 98 75 113 81 158 3 26 0 73 -7 105
-11 55 -11 59 14 95 14 20 26 49 26 64 0 32 22 48 110 77 81 27 162 87 201
148 20 32 38 49 56 52 33 6 73 62 73 101 0 40 26 37 34 -2z"/>
<path d="M4255 3836 c-17 -12 -18 -19 -8 -82 6 -38 10 -70 9 -71 -2 -2 -49
-17 -107 -34 -57 -17 -126 -42 -152 -57 -107 -58 -167 -165 -146 -261 25 -113
114 -185 308 -250 52 -17 102 -31 111 -31 35 0 40 -20 40 -180 l0 -155 -93
-44 c-120 -57 -213 -146 -239 -232 -59 -187 20 -331 234 -428 l95 -43 7 -82
c11 -145 8 -216 -9 -216 -21 0 -131 -56 -173 -87 -38 -28 -62 -71 -62 -110 0
-68 79 -132 213 -173 l67 -21 0 -52 c0 -29 3 -68 6 -87 l6 -36 -54 -17 c-30
-9 -63 -17 -74 -17 -16 0 -17 -2 -4 -10 8 -5 45 -10 83 -10 64 0 67 -1 67 -24
0 -13 6 -38 13 -56 l14 -32 11 29 c6 15 12 41 14 57 3 32 12 39 76 56 24 6 60
26 79 44 31 28 37 40 41 87 4 48 1 59 -22 86 -14 17 -50 41 -81 54 -54 24 -55
25 -55 67 0 23 -2 42 -4 42 -2 0 -27 -11 -54 -25 -60 -30 -77 -31 -119 -5 -65
39 -32 69 132 126 242 83 315 150 315 286 -1 113 -53 183 -179 240 l-64 30 6
154 c6 178 12 170 -93 129 -111 -43 -112 -45 -104 -126 7 -77 1 -84 -50 -50
-58 38 -83 111 -55 162 16 31 102 80 249 143 175 75 253 119 313 175 68 64 87
105 87 191 0 85 -19 128 -82 186 -41 38 -175 113 -226 126 -21 6 -22 11 -22
96 l0 91 -54 11 c-30 6 -78 10 -108 8 l-53 -3 -3 -62 c-2 -35 -5 -63 -6 -63
-18 0 -149 47 -179 63 -32 18 -38 26 -35 51 4 38 39 63 114 81 91 21 255 30
295 16 19 -7 72 -15 119 -18 148 -10 242 33 242 111 0 19 -8 46 -18 60 -30 42
-117 79 -198 85 l-71 6 -1 40 c-1 22 -2 46 -3 52 -1 9 -29 12 -108 10 -60 -1
-124 1 -143 6 -25 5 -42 3 -55 -7z m321 -887 c40 -24 57 -52 49 -78 -8 -26
-46 -58 -77 -66 l-28 -7 0 86 c0 95 3 98 56 65z m-39 -1081 c13 -12 23 -29 23
-38 0 -21 -26 -57 -51 -70 -18 -10 -19 -7 -19 60 0 77 8 85 47 48z m-27 -653
c11 -13 9 -19 -10 -40 -36 -38 -54 -33 -46 13 3 20 6 43 6 50 0 15 29 2 50
-23z"/>
<path d="M2969 5763 c-6 -15 -19 -53 -29 -83 -25 -72 -72 -201 -99 -270 l-21
-55 39 -38 40 -37 58 26 c32 15 75 34 95 43 21 9 38 23 38 31 0 8 -7 67 -16
130 -9 63 -21 151 -28 195 -11 77 -12 80 -38 83 -23 3 -30 -2 -39 -25z"/>
<path d="M3241 5396 c-51 -25 -97 -48 -101 -53 -4 -4 -3 -43 2 -85 10 -76 11
-78 42 -83 55 -11 148 -1 157 15 5 8 25 55 46 104 29 70 34 91 23 94 -8 3 -24
16 -37 28 -13 13 -27 24 -31 24 -4 0 -49 -20 -101 -44z"/>
<path d="M2997 5283 c-70 -33 -78 -39 -75 -62 4 -31 44 -43 131 -39 69 3 65
-4 52 91 -4 26 -11 47 -18 47 -7 -1 -47 -17 -90 -37z"/>
<path d="M2915 5122 c-7 -33 -70 -97 -111 -112 -23 -9 -25 -14 -20 -55 3 -25
9 -65 12 -90 3 -24 8 -47 13 -49 4 -3 47 -6 96 -7 l90 -2 17 33 c23 46 67 89
107 106 20 8 31 19 28 27 -3 8 -8 43 -12 79 -4 36 -11 71 -15 78 -5 8 -41 14
-103 18 l-95 5 -7 -31z"/>
<path d="M3166 5131 c-3 -4 0 -43 6 -88 10 -76 12 -82 36 -88 18 -4 30 -2 37
9 15 20 69 155 64 160 -8 7 -139 14 -143 7z"/>
<path d="M3333 5071 c-14 -31 -32 -74 -39 -96 l-15 -39 38 -33 c20 -18 40 -33
45 -33 4 0 63 23 131 51 335 139 318 130 310 158 -4 16 -25 19 -181 30 -97 6
-197 13 -221 15 l-43 4 -25 -57z"/>
<path d="M2342 4996 c-117 -51 -217 -97 -223 -103 -5 -5 -7 -17 -4 -25 5 -12
26 -18 88 -22 282 -18 329 -20 348 -16 15 4 30 27 55 85 18 44 33 87 34 96 0
17 -60 80 -75 78 -6 0 -106 -43 -223 -93z"/>
<path d="M2683 4998 c-12 -20 -73 -160 -73 -170 0 -4 34 -8 76 -8 l77 0 -7 83
c-4 45 -11 85 -14 88 -16 15 -51 19 -59 7z"/>
<path d="M2593 4778 c-9 -12 -41 -78 -56 -118 -3 -8 -12 -32 -21 -52 l-16 -37
33 -30 c17 -17 37 -31 42 -31 6 0 57 21 113 47 l104 48 -7 60 c-13 117 -12
115 -64 115 -25 0 -62 3 -81 6 -24 4 -40 2 -47 -8z"/>
<path d="M2814 4724 c3 -26 6 -57 6 -70 0 -13 4 -24 9 -24 5 0 48 18 96 41 77
36 86 43 81 62 -3 12 -6 25 -6 30 0 4 -43 7 -96 7 l-97 0 7 -46z"/>
<path d="M2937 4635 c-48 -22 -91 -45 -96 -51 -5 -5 -3 -54 4 -114 7 -58 19
-151 26 -208 11 -95 14 -103 36 -108 13 -4 25 -5 27 -3 3 5 52 132 119 311
l54 146 -41 34 -41 35 -88 -42z"/>
<path d="M1144 6790 c-35 -14 -64 -59 -64 -100 0 -80 112 -180 201 -180 71 0
104 32 103 98 0 43 -6 58 -37 95 -38 46 -124 98 -161 96 -12 0 -31 -4 -42 -9z
m117 -111 c50 -40 65 -65 48 -85 -16 -20 -51 -11 -96 23 -38 29 -67 78 -57 94
11 18 63 2 105 -32z"/>
<path d="M967 6622 c-9 -10 -23 -33 -31 -52 -14 -33 -13 -36 6 -57 20 -22 23
-22 40 -6 11 10 22 13 27 7 4 -5 36 -44 71 -86 34 -43 65 -78 69 -78 9 1 51
37 51 44 0 14 -193 246 -205 246 -6 0 -19 -8 -28 -18z"/>
<path d="M782 6467 c-13 -13 -28 -41 -33 -62 -10 -35 -9 -40 13 -56 20 -16 24
-16 34 -4 6 8 16 15 22 15 6 0 41 -34 79 -75 38 -41 74 -75 80 -75 5 0 19 11
32 23 l22 24 -113 117 -113 118 -23 -25z"/>
<path d="M611 6294 c-13 -16 -30 -73 -31 -105 0 -25 51 -35 67 -14 11 16 18
13 70 -31 32 -27 60 -51 63 -54 3 -3 15 -14 28 -24 22 -19 22 -19 47 4 14 13
25 27 25 30 0 4 -32 34 -71 66 -40 33 -94 78 -122 102 -28 23 -53 42 -56 42
-3 -1 -12 -8 -20 -16z"/>
<path d="M518 6090 c-47 -8 -64 -23 -78 -66 -29 -86 63 -180 188 -191 52 -5
61 -3 89 21 69 58 42 155 -57 206 -53 27 -101 37 -142 30z m87 -89 c22 -10 51
-30 64 -44 20 -22 22 -29 11 -42 -7 -8 -20 -15 -29 -15 -28 0 -118 47 -134 70
-34 49 14 65 88 31z"/>
<path d="M356 5796 c-7 -28 2 -85 17 -103 5 -7 22 -13 38 -13 22 0 28 5 31 24
l3 23 108 -22 c103 -21 108 -22 117 -4 13 23 13 46 0 54 -9 5 -282 64 -301 65
-4 0 -10 -11 -13 -24z"/>
<path d="M393 5634 c-64 -15 -94 -114 -51 -169 58 -74 236 -84 288 -17 25 31
26 99 2 128 -9 12 -32 29 -50 39 -34 16 -148 28 -189 19z m171 -98 c27 -17 27
-18 10 -37 -34 -38 -184 -15 -184 29 0 10 3 22 8 26 14 15 137 1 166 -18z"/>
<path d="M285 5350 c-8 -36 3 -96 20 -110 8 -7 24 -10 37 -8 17 2 22 8 20 26
-4 27 -7 27 96 2 116 -28 138 -27 145 7 3 16 4 31 2 34 -2 3 -28 11 -57 18
-29 6 -99 22 -155 35 l-102 23 -6 -27z"/>
<path d="M320 5184 c-88 -32 -117 -110 -65 -172 36 -43 73 -55 164 -51 72 4
83 7 110 33 16 16 33 41 36 56 9 41 -18 96 -57 116 -33 17 -158 29 -188 18z
m161 -93 c23 -18 23 -21 7 -37 -37 -37 -188 -22 -188 20 0 24 31 35 96 36 47
0 68 -5 85 -19z"/>
<path d="M433 4872 c-107 -43 -143 -61 -143 -74 0 -21 67 -98 85 -98 6 0 20 9
30 20 14 15 15 23 6 33 -15 19 -4 27 103 68 48 19 90 39 93 45 5 14 -14 64
-24 63 -5 0 -72 -26 -150 -57z"/>
<path d="M540 4664 c-69 -47 -127 -87 -129 -90 -11 -11 25 -53 62 -72 l42 -21
22 21 c21 19 21 23 8 38 -8 9 -15 19 -15 21 0 2 40 31 90 64 49 33 90 65 90
70 0 14 -29 55 -38 55 -4 -1 -63 -39 -132 -86z"/>
<path d="M690 4490 c-161 -114 -155 -108 -128 -138 13 -14 38 -31 57 -39 30
-13 35 -12 52 3 23 21 24 33 4 48 -13 9 0 22 75 75 50 35 93 67 95 72 3 4 -5
19 -17 34 l-23 26 -115 -81z"/>
</g>
</svg>
