<?xml version="1.0" encoding="UTF-8" standalone="no"?>
<!-- Created with Inkscape (http://www.inkscape.org/) -->

<svg
   xmlns:dc="http://purl.org/dc/elements/1.1/"
   xmlns:cc="http://creativecommons.org/ns#"
   xmlns:rdf="http://www.w3.org/1999/02/22-rdf-syntax-ns#"
   xmlns:svg="http://www.w3.org/2000/svg"
   xmlns="http://www.w3.org/2000/svg"
   xmlns:sodipodi="http://sodipodi.sourceforge.net/DTD/sodipodi-0.dtd"
   xmlns:inkscape="http://www.inkscape.org/namespaces/inkscape"
   width="210mm"
   height="297mm"
   viewBox="0 0 210 297"
   version="1.1"
   id="svg8"
   inkscape:version="0.92.4 (5da689c313, 2019-01-14)"
   sodipodi:docname="logo.svg">
  <defs
     id="defs2" />
  <sodipodi:namedview
     id="base"
     pagecolor="#ffffff"
     bordercolor="#666666"
     borderopacity="1.0"
     inkscape:pageopacity="0.0"
     inkscape:pageshadow="2"
     inkscape:zoom="0.35"
     inkscape:cx="400"
     inkscape:cy="560"
     inkscape:document-units="mm"
     inkscape:current-layer="layer1"
     showgrid="false"
     inkscape:window-width="2752"
     inkscape:window-height="1875"
     inkscape:window-x="-13"
     inkscape:window-y="-13"
     inkscape:window-maximized="1" />
  <metadata
     id="metadata5">
    <rdf:RDF>
      <cc:Work
         rdf:about="">
        <dc:format>image/svg+xml</dc:format>
        <dc:type
           rdf:resource="http://purl.org/dc/dcmitype/StillImage" />
        <dc:title></dc:title>
      </cc:Work>
    </rdf:RDF>
  </metadata>
  <g
     inkscape:label="Layer 1"
     inkscape:groupmode="layer"
     id="layer1">
    <path
       style="fill:#000000;stroke-width:0.52391005"
       d="M -144.67075,156.01489 V -41.761156 H 78.514943 301.70062 V 156.01489 353.79094 H 78.514943 -144.67075 Z m 247.02359,187.81514 c 35.7618,-2.56592 70.43231,-16.79978 97.44727,-40.00666 17.9547,-15.42376 32.6703,-34.21479 43.3365,-55.33835 5.09127,-10.08287 10.97859,-25.23945 12.9225,-33.26829 0.27906,-1.1526 0.97692,-3.98172 1.5508,-6.28692 1.20942,-4.85814 2.83835,-13.97531 3.8378,-21.48031 0.4526,-3.39862 0.69574,-10.85256 0.69213,-21.21836 -0.006,-16.60978 -0.42861,-21.62603 -2.89251,-34.31611 -0.93074,-4.79368 -1.44591,-7.08904 -3.11609,-13.88361 -2.07836,-8.45516 -7.67422,-22.842816 -13.04108,-33.530256 -8.90763,-17.73842 -18.64671,-31.17263 -33.05963,-45.60285 -11.24527,-11.25876 -20.87647,-18.79103 -33.83819,-26.46379 -29.29522,-17.3414703 -62.244,-25.38558 -95.550317,-23.32764 -11.72375,0.7244 -24.07054,2.5872497 -31.46259,4.7470097 -1.00663,0.29411 -1.89073,0.53474 -1.96467,0.53474 -0.38495,0 -0.0512,-1.71916 0.50734,-2.61358 0.94231,-1.50889 -0.0584,-2.2289797 -3.4935,-2.5138397 -2.74701,-0.22781 -2.91484,-0.17054 -3.42385,1.1682697 -0.75931,1.99713 -0.67552,2.38742 0.51257,2.38742 1.19061,0 1.3581,0.95722 0.39293,2.24577 -0.36019,0.48087 -3.24824,1.78605 -6.4179,2.9004 -11.94829,4.2006401 -20.86955,8.42178 -32.0933001,15.1851203 -42.2742099,25.47409 -72.2411809,68.7017 -81.8795409,118.111946 -0.92767,4.75565 -1.38943,6.15668 -2.02996,6.15917 -0.45603,0.002 -1.50443,0.35542 -2.32978,0.78587 -2.14363,1.11798 -2.42869,1.00008 -2.42869,-1.00448 0,-3.34867 -4.66255,-5.68639 -7.89309,-3.95746 -1.16561,0.62381 -1.2409,0.26667 -0.43259,-2.05203 1.12524,-3.22786 -1.63322,-6.87287 -5.20122,-6.87287 -3.838862,0 -9.397092,4.03378 -10.606132,7.69719 -1.69357,5.13158 4.01394,8.70465 9.46355,5.92447 1.129642,-0.5763 2.149112,-1.04782 2.265472,-1.04782 0.11636,0 -0.34577,1.10087 -1.02695,2.44638 -1.693932,3.34595 -1.611852,5.50189 0.29051,7.63062 1.32667,1.48453 1.84789,1.7043 3.93823,1.66053 1.8814,-0.0394 2.86636,-0.41784 4.49593,-1.7274 l 2.08674,-1.67695 v 3.12795 c 0,2.60076 0.22861,3.39963 1.35635,4.73988 0.74599,0.88656 1.86585,1.61554 2.48857,1.61995 0.62273,0.004 1.38571,0.18123 1.69553,0.39293 0.37121,0.25365 0.58425,4.49414 0.62474,12.43485 0.21319,41.81335 13.5907,79.82969 39.636951,112.64066 4.49788,5.66606 18.29246,19.82893 23.52508,24.15314 10.6445999,8.79665 20.8612399,15.50238 33.08848,21.71776 27.40233,13.92921 57.3541,19.97824 88.025607,17.77755 z m -24.099857,-5.74039 c -12.98271,-1.18004 -20.49605,-2.51749 -14.66949,-2.61132 1.44076,-0.0232 4.38775,-0.53224 6.54888,-1.13119 2.22425,-0.61645 6.70775,-1.26454 10.33212,-1.49352 6.2568,-0.39529 6.48378,-0.45328 9.95429,-2.54316 1.95333,-1.17625 4.96606,-2.6711 6.69496,-3.32188 6.869907,-2.58595 10.014157,-5.1462 15.983547,-13.0148 0.9837,-1.29667 2.83214,-3.53639 4.10765,-4.97714 4.0374,-4.56048 4.8552,-6.24929 5.29845,-10.94176 0.56403,-5.97107 1.63741,-7.92447 5.39738,-9.8225 3.59156,-1.81301 4.73888,-2.87736 6.29717,-5.84174 1.05271,-2.0026 1.16204,-2.96798 1.16986,-10.32966 0.006,-5.81156 0.21205,-8.52095 0.72404,-9.52856 1.36153,-2.67952 14.03618,-12.50982 20.5758,-15.95832 4.80528,-2.53395 8.43761,-6.18444 9.81395,-9.86303 0.90441,-2.41726 1.09805,-4.11552 1.09805,-9.62978 0,-3.68223 0.24655,-8.02864 0.54788,-9.65868 0.78791,-4.26221 0.0595,-6.43432 -3.18895,-9.50999 l -2.6496,-2.50865 0.3364,-3.47618 c 0.31222,-3.22629 0.21657,-3.70213 -1.33074,-6.61963 -1.27068,-2.39591 -1.60772,-3.59481 -1.41724,-5.04136 0.35408,-2.68908 3.22062,-6.90605 8.74419,-12.86354 2.62473,-2.83093 5.51552,-6.44382 6.42398,-8.02865 0.90846,-1.58483 3.78501,-5.1249 6.39232,-7.86683 2.60732,-2.74193 5.68361,-6.11627 6.83621,-7.49851 1.1526,-1.38225 3.56453,-3.67757 5.35983,-5.10072 3.38633,-2.68437 5.02961,-5.16086 5.66228,-8.53328 0.20319,-1.08309 1.35476,-3.31184 2.55906,-4.95278 2.31405,-3.15307 3.60982,-5.96482 4.16657,-9.0412 0.18577,-1.0265 1.42946,-3.61985 2.76375,-5.76301 3.18574,-5.11694 4.37424,-8.43069 4.37424,-12.19617 0,-2.5378 0.23518,-3.35472 1.34575,-4.67456 1.0053,-1.19472 1.26093,-1.94283 1.01046,-2.95713 -0.52553,-2.128124 -2.86148,-4.193184 -5.69514,-5.034684 l -2.59537,-0.770752 -3.27392,1.830882 c -2.13611,1.19458 -3.97265,1.83373 -5.28443,1.83907 -2.61132,0.0106 -6.68756,1.05306 -12.22676,3.126784 -6.34132,2.374 -6.23458,2.35375 -6.56998,1.24673 -1.00594,-3.320164 -2.83237,-5.692984 -7.55051,-9.809246 -2.81052,-2.45199 -6.22723,-5.21215 -7.59269,-6.13369 -1.56177,-1.05402 -3.30694,-2.96149 -4.70489,-5.14241 -1.22222,-1.90679 -3.14565,-4.24752 -4.27427,-5.2016 -3.89326,-3.2912 -4.81454,-4.35011 -5.12194,-5.88714 -0.18083,-0.90412 -1.5064,-2.74024 -3.20349,-4.43734 -2.47348,-2.47347 -2.89536,-3.17946 -2.89723,-4.8483 -0.003,-2.56621 -1.67476,-5.76152 -5.5962,-10.69546 -2.71127,-3.41133 -3.25595,-4.4526 -3.56268,-6.81083 -0.44833,-3.44686 -1.96061,-5.83353 -5.41559,-8.54685 -1.54845,-1.21605 -3.25319,-3.19513 -4.06157,-4.71519 l -1.39311,-2.61955 1.89506,-2.00196 c 1.72571,-1.82305 1.89507,-2.27123 1.89507,-5.0148 0,-5.91704 -3.10885,-12.3129903 -6.93326,-14.2640503 -3.06811,-1.5652399 -9.67382,-3.1832199 -13.23728,-3.2423099 -2.3302,-0.0386 -3.68316,0.24633 -5.22955,1.10145 -1.14735,0.63447 -2.82773,1.2927099 -3.734187,1.4627599 -2.16619,0.40638 -12.5613,-2.3969799 -16.6507,-4.4903699 -2.04553,-1.04712009 -3.86025,-1.57991009 -5.38131,-1.57991009 -1.92258,0 -2.38922,-0.20679 -2.87564,-1.27436001 -0.31935,-0.7009 -1.27886,-1.56358 -2.13225,-1.91707 -2.48333,-1.02863 -0.81892,-1.46256 8.05822,-2.10087 27.575107,-1.98277 58.078497,4.32018001 83.183517,17.1883003 26.80167,13.73778 48.80254,33.63996 65.61486,59.35577 8.58207,13.12699 15.44885,28.274612 21.01882,46.366046 2.38633,7.75088 5.29076,23.66793 6.11835,33.53024 4.2676,50.85642 -13.28912,100.74115 -48.11117,136.70053 -23.91533,24.69641 -55.14535,41.69401 -87.56707,47.66022 -12.75036,2.34631 -31.319467,3.41585 -42.174757,2.42919 z M 177.61824,291.4524 c 1.82661,-0.57258 4.49991,-1.04556 5.94066,-1.05105 4.52658,-0.0172 6.42964,-1.55563 8.44838,-6.82944 0.6125,-1.60011 2.19751,-4.5254 3.52224,-6.50065 2.26502,-3.37727 2.94132,-4.87022 4.52431,-9.98743 0.35655,-1.15261 1.4394,-3.80903 2.40633,-5.90317 2.24677,-4.86599 3.1732,-8.01682 3.64068,-12.38213 0.35748,-3.33807 0.45365,-3.52877 2.13347,-4.23065 3.33183,-1.39212 4.9305,-6.36455 3.14591,-9.78492 -0.39893,-0.76459 -0.89763,-2.87474 -1.10822,-4.68922 -0.21059,-1.81447 -0.79624,-4.25376 -1.30144,-5.42065 -1.21494,-2.8062 -3.88753,-5.52703 -5.42903,-5.52703 -2.28208,0 -7.14681,4.26958 -7.14685,6.27251 -1e-5,0.44015 -0.8235,1.45733 -1.82998,2.26041 -1.00649,0.80307 -2.64801,2.73893 -3.64783,4.3019 -2.12898,3.32814 -4.47271,5.01419 -9.3323,6.71355 -4.15022,1.45131 -7.44465,3.91496 -7.95518,5.94907 -0.20017,0.79754 -0.96605,2.72281 -1.70196,4.27839 -1.3556,2.86551 -1.4402,5.30086 -0.37655,10.83987 0.24272,1.26398 -0.0736,2.11163 -1.56408,4.19128 -3.7218,5.19303 -3.67085,5.00293 -3.784,14.11594 -0.11082,8.92537 0.0976,9.91728 2.56837,12.22486 1.16887,1.09166 3.32595,2.03673 4.91774,2.15459 0.33451,0.0248 2.10271,-0.42344 3.92933,-0.99603 z m -4.81691,-5.68067 c -1.29923,-1.05462 -1.39329,-2.0535 -0.56005,-5.94754 0.47719,-2.23013 0.49129,-3.51804 0.0562,-5.13388 -0.71673,-2.66174 -0.51265,-3.32826 2.08533,-6.81032 3.26754,-4.37951 3.61019,-6.30384 2.31323,-12.99111 -0.26124,-1.34692 -0.0376,-2.14303 1.03834,-3.69553 0.75421,-1.08833 1.3713,-2.60902 1.3713,-3.3793 0,-1.70328 1.16465,-2.52171 5.76301,-4.04984 4.64461,-1.54351 8.03523,-4.14516 10.7075,-8.21597 0.98742,-1.50418 1.87511,-2.24736 2.81602,-2.35759 1.68047,-0.19687 3.76551,-3.08487 3.76551,-5.2156 0,-2.0842 1.38771,-1.93047 1.8818,0.20845 0.21633,0.93649 0.35199,2.84379 0.30148,4.23844 -0.0661,1.82522 0.20898,2.95818 0.98172,4.0434 l 1.07355,1.50766 -1.9346,0.80833 c -2.64258,1.10414 -3.22731,2.07458 -3.63714,6.03632 -0.57238,5.53307 -1.69525,9.64796 -3.92596,14.38715 -1.1544,2.45254 -2.24923,5.22863 -2.43297,6.16909 -0.51142,2.61768 -2.12708,6.11195 -4.08812,8.84157 -1.65356,2.30163 -2.81024,4.57152 -4.4418,8.71664 -0.6409,1.62825 -0.794,1.70271 -3.50124,1.70271 -1.55707,0 -4.11897,0.45268 -5.69312,1.00595 -2.68208,0.94267 -2.92989,0.95091 -3.93998,0.13097 z M 50.223793,333.40325 c -35.00652,-9.0871 -65.17648,-28.69666 -88.33174,-57.41295 -22.074457,-27.37595 -35.996461,-63.64029 -37.752611,-98.3389 l -0.34779,-6.87169 1.2637,0.38662 c 19.819934,6.06359 39.732851,8.29856 56.450741,6.33586 6.91914,-0.81231 12.7095199,-1.89256 17.0417399,-3.1793 4.41816,-1.31225 4.92394,-1.11248 8.97729,3.54579 5.4046401,6.21123 8.5717101,10.4974 12.3054301,16.6536 3.23794,5.33878 3.34578,5.63242 3.65562,9.95429 0.24728,3.44909 0.71029,5.32615 2.05334,8.32444 1.97875,4.41742 1.94637,5.15083 -0.45663,10.34252 -0.86818,1.8757 -1.57996,3.68862 -1.58173,4.02871 -0.002,0.34008 -0.35805,1.2987 -0.79172,2.13025 -0.43367,0.83156 -1.52223,3.66067 -2.41901,6.28692 -1.36324,3.99225 -1.6414,5.63383 -1.69686,10.0141 -0.10482,8.27905 1.37693,12.22409 7.49013,19.94192 4.80044,6.06046 5.72891,8.04635 6.56683,14.04564 0.38073,2.72594 0.82222,5.16658 0.98109,5.42363 0.15887,0.25706 0.7676,3.31978 1.35271,6.80605 0.82129,4.89339 1.43146,6.96213 2.67608,9.073 2.36751,4.01531 5.51919,8.61509 9.0623,13.22616 2.85826,3.71979 3.07909,4.1906 2.53046,5.39473 -1.39544,3.06265 -0.273,6.15613 3.73528,10.29459 1.55413,1.60461 3.9844,3.52016 5.4006,4.25677 2.4202,1.25883 2.48047,1.33839 1.00317,1.32426 -0.86445,-0.008 -4.99024,-0.90243 -9.16842,-1.98701 z m 9.95429,-5.16959 c -4.33254,-2.82711 -5.87195,-5.17688 -5.13651,-7.84042 0.80145,-2.9026 0.0677,-5.45324 -2.38712,-8.2982 -3.05091,-3.53575 -9.17375,-12.45422 -10.6473,-15.50874 -0.75355,-1.56203 -1.21374,-3.4741 -1.21374,-5.043 0,-1.38987 -0.34776,-3.69807 -0.77281,-5.12935 -0.42504,-1.43127 -1.23395,-5.34163 -1.79757,-8.68968 -1.19427,-7.09425 -1.91227,-8.67917 -6.56256,-14.48619 -4.62906,-5.7805 -6.40186,-9.08724 -7.12688,-13.29351 -1.0203,-5.91935 0.22863,-10.8136 6.60359,-25.8778 2.37412,-5.6101 2.3677,-7.97939 -0.0361,-13.30328 -1.50491,-3.33304 -1.83368,-4.68612 -1.83368,-7.54659 0,-2.83951 -0.29431,-4.06842 -1.58819,-6.63157 -3.82119,-7.56975 -9.66422,-15.93576 -15.01854,-21.50348 -3.7097301,-3.85757 -3.7075901,-3.87631 0.62747,-5.48314 7.24466,-2.6853 19.46261,-9.58878 26.70377,-15.08837 14.63211,-11.11296 25.93719,-24.65059 34.61938,-41.45607 3.64195,-7.04948 7.58299,-16.961644 9.37372,-23.575956 0.46807,-1.72891 1.06855,-3.85074 1.3344,-4.71519 0.26585,-0.86446 0.72968,-3.04523 1.03073,-4.84617 0.30105,-1.80094 0.82246,-4.74794 1.15868,-6.54888 1.00382,-5.37682 0.8208,-25.85 -0.28686,-32.08949 -1.85176,-10.4311 -4.55602,-19.3164 -8.76992,-28.81502 -1.40615,-3.1696403 -2.55665,-5.9398103 -2.55665,-6.1559403 0,-0.80018 2.42321,-0.34282 4.51168,0.85154 1.18475,0.67754 3.54234,1.64359 5.2391,2.14678 1.69676,0.50318 4.26382,1.2831303 5.70457,1.7332003 4.24197,1.32515 9.893777,1.07146 13.548777,-0.60815 l 3.07058,-1.4110503 4.59468,1.1132403 c 6.2134,1.50545 7.41231,2.31858 8.81218,5.97667 1.40707,3.67689 1.48868,5.95543 0.22959,6.40967 -2.31609,0.83556 -3.79835,2.34828 -3.79835,3.87638 0,3.05059 3.47232,8.8501 7.737,12.92244 3.88763,3.71229 3.99112,3.87698 4.35021,6.92239 0.28277,2.39823 0.77218,3.63902 2.1164,5.36566 0.96172,1.23532 1.87864,2.36391 2.0376,2.50799 0.15897,0.14407 1.02175,1.20499 1.9173,2.35759 2.15969,2.7796 3.3218,5.67767 3.3218,8.28392 0,1.87517 0.30724,2.4178 2.55937,4.52023 1.40765,1.31409 3.16186,3.59153 3.89823,5.061 0.80913,1.61463 2.56971,3.73805 4.44968,5.3667 1.71095,1.48221 4.10071,4.2143 5.31059,6.07129 1.32693,2.03665 3.37908,4.25724 5.17187,5.59637 5.94747,4.442512 12.68917,10.598556 12.93783,11.813916 0.13777,0.67339 0.38002,1.84223 0.53832,2.59742 0.78462,3.74308 5.41016,4.92239 10.82587,2.76012 6.96756,-2.78186 11.77324,-4.12082 14.81985,-4.12912 2.60766,-0.007 3.54532,-0.27569 5.50106,-1.5758 2.69928,-1.79438 3.41657,-1.95787 2.87327,-0.65488 -0.21026,0.50426 -0.56694,3.00074 -0.79262,5.54774 -0.34773,3.92429 -0.67075,5.04346 -2.11698,7.33474 -3.20439,5.07672 -4.07638,6.89579 -4.93765,10.30054 -0.47379,1.87297 -1.50039,4.23057 -2.28134,5.2391 -2.33691,3.01793 -3.00391,4.2801 -4.25036,8.04297 -0.9344,2.82084 -1.54085,3.80067 -2.83133,4.57449 -0.90324,0.54161 -3.29256,2.80272 -5.30962,5.02469 -2.01705,2.22197 -5.65637,6.12492 -8.08736,8.6732 -2.431,2.54829 -5.65061,6.51445 -7.1547,8.8137 -1.50408,2.29924 -4.31948,5.81478 -6.25644,7.81232 -9.60665,9.90709 -12.21529,16.6723 -8.83502,22.9126 1.14792,2.11916 1.37531,3.24487 1.44075,7.13271 l 0.0777,4.61642 3.06431,2.89769 c 2.67081,2.52558 3.01875,3.07648 2.70954,4.29005 -0.19512,0.7658 -0.5158,5.30363 -0.71263,10.08408 -0.48054,11.67131 -0.32249,11.42951 -11.87205,18.1628 -4.57853,2.66924 -14.00411,10.20555 -17.17526,13.73262 -3.05389,3.39667 -3.59394,5.76269 -3.16067,13.84732 0.42939,8.01245 -0.21902,9.65399 -4.70856,11.9203 -5.37355,2.71256 -7.39267,5.91822 -8.00856,12.71478 -0.42054,4.64085 -0.33447,4.49377 -8.6974,14.86323 -5.86824,7.27621 -7.05023,8.25704 -12.736197,10.56859 -2.3052,0.93715 -5.60364,2.55507 -7.32986,3.59539 -2.99643,1.80581 -3.42356,1.90772 -9.43038,2.25018 -3.56805,0.20341 -7.29005,0.72289 -8.59774,1.19998 -1.26826,0.46271 -3.50798,0.97525 -4.97714,1.13899 -2.34585,0.26143 -2.95838,0.11031 -5.02881,-1.2407 z m 27.2197,-27.90774 c 0.0286,-1.61633 0.90781,-2.5891 2.35503,-2.6056 0.5907,-0.007 2.25281,-0.65507 3.69356,-1.44075 3.24379,-1.76892 4.61004,-4.11652 4.28054,-7.35512 -0.28825,-2.83326 -1.72697,-4.41499 -5.40085,-5.93773 -2.79397,-1.15804 -2.80901,-1.17662 -2.80901,-3.46912 0,-1.26766 -0.17682,-2.21604 -0.39294,-2.10748 -2.62109,1.31653 -5.63179,2.50911 -6.33035,2.50754 -1.31049,-0.003 -4.27882,-1.97047 -4.27882,-2.83617 0,-1.24487 2.59177,-2.7177 8.24533,-4.68557 13.285157,-4.62426 16.879337,-7.87499 16.879337,-15.26639 0,-5.73651 -2.9972,-9.64533 -9.652777,-12.58874 l -3.04673,-1.34741 0.27203,-8.09434 c 0.31702,-9.43277 0.73374,-8.96597 -5.62441,-6.30036 l -4.19128,1.75717 -0.14266,3.59451 c -0.20536,5.17422 -0.25113,5.22437 -3.02595,3.31524 -3.19359,-2.19724 -4.33453,-5.60326 -2.82303,-8.42752 0.8877,-1.65869 5.4418,-4.28178 13.06443,-7.52488 9.03847,-3.8455 13.246017,-6.18903 16.442897,-9.15841 3.29996,-3.06513 4.5135,-5.88341 4.5135,-10.48199 0,-3.15279 -0.19677,-3.8575 -1.70271,-6.09819 -2.20402,-3.27937 -5.90064,-6.0289 -11.131597,-8.27964 l -4.19277,-1.80404 -0.15126,-4.48322 c -0.18181,-5.3884 -0.26267,-5.46003 -6.67478,-5.91254 l -4.43802,-0.31319 v 3.19035 c 0,1.7547 -0.21248,3.32168 -0.47217,3.48218 -0.58102,0.35909 -6.95765,-1.56839 -9.54849,-2.88624 -2.31466,-1.17738 -2.8348,-2.33696 -1.77427,-3.95553 1.55828,-2.37825 5.46913,-3.58937 13.44097,-4.16243 3.8791,-0.27886 6.12653,-0.1498 9.68379,0.55608 7.05385,1.39971 12.724307,0.67284 15.782507,-2.0231 0.86439,-0.762 1.1788,-1.6162 1.1788,-3.20266 0,-3.96623 -4.42112,-6.92592 -11.264067,-7.54065 l -3.66737,-0.32945 -0.0885,-2.09564 c -0.0487,-1.1526 -0.1076,-2.41234 -0.13097,-2.79942 -0.0339,-0.56155 -1.0219,-0.63472 -4.88867,-0.36205 -2.66539,0.18795 -6.01968,0.11249 -7.45396,-0.1677 -4.00642,-0.78263 -4.67394,-0.20289 -4.23486,3.67804 0.19459,1.72001 0.4786,3.4525 0.63112,3.84996 0.19759,0.51492 -0.60176,0.96337 -2.78054,1.55995 -13.98343,3.82883 -19.10322,8.46214 -18.36361,16.6187 0.49224,5.42847 3.64088,8.77199 11.46443,12.17397 2.1217,0.9226 5.50429,2.11118 7.51685,2.64127 2.01257,0.53011 3.95391,1.18952 4.3141,1.46535 0.47528,0.36399 0.65247,2.74698 0.64608,8.68896 l -0.009,8.18744 -4.83736,2.32363 c -8.80356,4.22879 -13.48189,10.39626 -13.48189,17.77323 0,7.72271 4.74362,13.37575 14.55846,17.34953 4.18157,1.69301 4.15021,1.61348 4.24032,10.756 l 0.062,6.28959 -3.08257,1.19529 c -6.15562,2.3869 -10.01519,5.94559 -10.01519,9.23445 0,3.68967 3.42119,6.59939 10.55134,8.97395 l 4.11815,1.37147 0.005,1.92164 c 0.003,1.0569 0.14793,3.11466 0.32316,4.57281 l 0.31861,2.65117 -2.74091,0.88522 c -1.50751,0.48687 -3.24431,0.90935 -3.85956,0.93885 -1.86119,0.0892 2.34826,0.99181 4.38242,0.93967 2.88469,-0.0739 3.14346,10e-4 3.14346,0.91058 0,0.47083 0.28503,1.80742 0.63341,2.97019 l 0.63341,2.11413 0.65273,-1.52943 c 0.35901,-0.8412 0.66337,-2.13063 0.67637,-2.86541 z m 1.0786,-8.22539 c 0.004,-0.79241 0.14743,-1.96402 0.31888,-2.60357 0.29588,-1.1037 0.38873,-1.12299 1.82653,-0.37947 1.83145,0.94707 1.90775,1.77635 0.30224,3.28465 -1.634,1.53507 -2.45627,1.43374 -2.44765,-0.30161 z m 2.04558,-30.36835 c -0.12171,-1.16686 0.15801,-6.72608 0.348,-6.91606 0.12122,-0.12122 0.8158,0.0982 1.54352,0.48772 1.71265,0.91658 2.17158,2.78091 1.09065,4.43063 -0.8839,1.34899 -2.90838,2.70516 -2.98217,1.99771 z m 1.61464,-58.82734 c 0,-5.21245 0.16317,-5.41036 3.02316,-3.66661 2.43046,1.48186 3.13778,3.24321 1.99983,4.97994 -0.82574,1.26024 -3.7335,3.39544 -4.63006,3.3999 -0.21611,0.001 -0.39293,-2.11987 -0.39293,-4.71323 z M 5.4294829,154.99181 c -0.28815,-0.10727 -1.15408,-0.33347 -1.92429,-0.50267 -3.30812,-0.72671 -6.72023,-5.33205 -6.72023,-9.07031 0,-1.89713 1.4479,-5.3342 2.82879,-6.71509 0.35327,-0.35328 1.64541,-1.15406 2.87142,-1.77952 1.97477,-1.00745 2.19445,-1.29832 1.92541,-2.54929 -0.37294,-1.73405 -2.36639,-17.30069 -2.37808,-18.57013 -0.0121,-1.31403 -0.55068,-1.18646 -6.03991,1.43051 l -4.9237,2.34737 0.30037,2.53613 c 0.64794,5.4708 -3.7889099,10.20786 -9.5609299,10.20786 -9.56046,0 -13.74505,-12.10013 -5.9651,-17.24866 1.77325,-1.17347 2.82444,-1.46593 5.38941,-1.49942 l 3.18649,-0.0416 2.25359,-5.1687 c 1.23947,-2.84279 2.25359,-5.22631 2.25359,-5.29673 0,-0.0704 -3.00593,-0.27538 -6.67985,-0.45548 -3.67392,-0.1801 -8.69728,-0.46103 -11.16303,-0.62429 l -4.48316,-0.29683 -0.97812,2.16907 c -2.00533,4.44701 -6.04129,6.40411 -11.362747,5.50994 -4.42445,-0.74344 -8.39337,-6.45319 -7.56288,-10.880104 0.81089,-4.322402 4.88261,-7.681602 9.329787,-7.697162 3.03592,-0.0106 4.85246,0.72844 7.22841,2.94086 l 1.83368,1.70749 9.9543,-4.20319 c 15.3839899,-6.49589 14.27514,-5.8823 14.00136,-7.74767 -0.38644,-2.63299 0.35709,-5.1876 2.0815099,-7.1516 2.23292,-2.54316 4.06072,-3.36745 7.46706,-3.36745 1.82391,0 2.90752,-0.22217 2.90752,-0.59613 0,-0.32787 1.7682,-5.35657 3.92933,-11.17488 2.16113,-5.81831 3.92932,-10.81246 3.92932,-11.09811 0,-0.28566 -1.0366,-1.60124 -2.30357,-2.92352 -3.34492,-3.49095 -3.79754,-7.62595 -1.28738,-11.76095 1.06289,-1.75093 5.5682801,-4.35921 7.5298201,-4.35921 2.30584,0 5.90814,1.67964 7.83553,3.65346 1.63876,1.67824 2.03963,2.51081 2.24674,4.66624 0.13865,1.44295 0.0965,3.45277 -0.0936,4.46627 -0.39771,2.11999 -2.78832,4.73672 -5.27762,5.77681 -1.3559,0.56654 -1.67596,0.97347 -1.53199,1.94782 0.1001,0.67741 0.69553,5.23957 1.32318,10.13813 0.62764,4.89856 1.30723,9.09491 1.51018,9.32524 0.20296,0.23031 2.5578,-0.60177 5.23299,-1.84907 l 4.86398,-2.26782 0.0768,-3.43692 c 0.089,-3.98267 0.87593,-5.49131 4.07235,-7.80679 4.70389,-3.40748 12.47906,-1.06482 14.54278,4.38174 2.52766,6.67101 -1.84206,12.91769 -9.03628,12.91769 h -2.82029 l -2.00906,4.97118 c -1.10498,2.73414 -1.90813,5.0717 -1.78478,5.19458 0.20217,0.20139 17.84927,1.36026 20.71388,1.36026 0.77046,0 1.30672,-0.41046 1.54011,-1.1788 1.04549,-3.44185 5.33394,-6.64285 8.93377,-6.66834 3.73375,-0.0265 7.90175,2.45346 9.38816,5.58584 0.63316,1.3343 0.82689,2.76495 0.66935,4.943 -0.29844,4.12584 -2.24092,6.60937 -6.27212,8.01916 -2.55356,0.893022 -3.16094,0.930932 -5.30373,0.330982 -1.33096,-0.372642 -3.35137,-1.474812 -4.4898,-2.449272 -1.13844,-0.97446 -2.27461,-1.77174 -2.52483,-1.77174 -0.45432,0 -6.25216,2.35465 -17.25568,7.007982 l -5.82728,2.464324 0.23686,2.20566 c 0.58544,5.45165 -4.07467,10.17541 -10.1478,10.28641 l -2.18082,0.0399 -1.34004,3.53639 c -0.73702,1.94501 -2.72387,7.21579 -4.41522,11.71283 l -3.07517,8.17644 2.19629,2.13724 c 2.81866,2.74287 3.84771,5.97568 2.90438,9.12426 -0.7882,2.63078 -2.23748,4.66188 -4.11617,5.76862 -1.39505,0.82185 -5.6343601,1.59907 -6.6532001,1.2198 z m 8.0026501,-30.28512 c 2.3844,-6.40883 4.32942,-11.83256 4.32226,-12.05274 -0.0198,-0.60793 -3.33295,-3.49615 -4.03063,-3.51365 -0.33672,-0.008 -2.22279,0.76308 -4.1912901,1.7145 -6.44329,3.1142 -5.84179,2.09524 -5.06733,8.5841 0.3719,3.11592 0.9558,8.07186 1.29757,11.01321 0.61894,5.32684 0.76525,5.63144 2.81023,5.85081 0.28815,0.0309 2.4747901,-5.18739 4.8591901,-11.59623 z m -17.2638301,-9.81883 5.4083,-2.61106 -0.37375,-2.99137 c -0.72838,-5.82978 -0.54266,-5.61702 -5.2399,-6.00277 -2.28532,-0.18767 -4.34528,-0.22446 -4.57768,-0.0817 -0.36857,0.22632 -2.2823099,4.18009 -3.1209999,6.44794 -0.15985,0.43223 -0.66436,1.65925 -1.12114,2.72671 l -0.83052,1.94084 1.69978,1.59313 c 0.93488,0.87622 1.93555,1.59228 2.2236999,1.59125 0.28815,-10e-4 2.95764,-1.17685 5.93221,-2.61292 z m 12.40585,-5.79302 c 4.0442501,-1.88596 4.5237401,-2.25534 4.2504601,-3.27444 -0.16942,-0.63178 -0.31126,-1.32551 -0.31519,-1.54162 -0.004,-0.21612 -2.25858,-0.39294 -5.0103201,-0.39294 h -5.00316 l 0.35673,3.27444 c 0.33717,3.0948 0.57114,4.0603 0.98398,4.0603 0.0985,0 2.23033,-0.95658 4.7375,-2.12574 z m 4.6336001,-9.00734 c 0.90785,-2.148304 3.21993,-4.459074 5.3536,-5.350576 l 1.64653,-0.68797 -0.67493,-4.56483 c -0.3712,-2.51066 -0.79801,-4.68793 -0.94845,-4.83838 -0.15045,-0.15044 -2.40406,-0.395 -5.00803,-0.54347 l -4.7344901,-0.26995 -0.78071,1.77517 c -1.10225,2.50626 -2.42392,3.9047 -4.91985,5.20565 -1.19085,0.62071 -2.16518,1.16988 -2.16518,1.22038 0,0.98434 1.17961,9.022156 1.36906,9.328686 0.14548,0.23539 2.48715,0.42799 5.20371,0.42799 H 12.488203 Z M -0.2611071,97.729896 c -0.18699,-1.94502 -0.47799,-4.043452 -0.64664,-4.663202 -0.33821,-1.24273 -2.62866,-1.97365 -3.22627,-1.02955 -0.90761,1.43382 -3.65419,8.672616 -3.39062,8.936196 0.16113,0.16112 1.93784,0.29295 3.94825,0.29295 h 3.65528 z m -8.73075,0.56411 c 0.59567,-1.34662 1.4871,-3.586092 1.98098,-4.976622 l 0.89794,-2.52822 -1.91423,-1.91425 -1.91424,-1.91424 -11.4372799,4.88302 c -6.29049,2.68565 -11.70762,5.087932 -12.03807,5.338382 -1.16194,0.88068 -0.16754,2.50795 1.57875,2.58352 0.90288,0.0391 4.47072,0.23351 7.92853,0.432104 3.4578,0.19858 7.98514,0.40237 10.06075,0.45287 l 3.77383,0.0918 z M 41.986313,94.432294 c 12.70936,-5.31844 12.42876,-5.17132 12.42876,-6.51629 0,-1.07205 -0.36442,-1.15176 -7.98963,-1.74744 -4.3943,-0.34329 -9.64133,-0.62313 -11.66008,-0.62187 -4.13413,0.003 -3.40601,-0.72086 -6.2914,6.25094 l -1.39354,3.36714 2.01032,1.721312 c 1.10569,0.94672 2.1935,1.73016 2.41737,1.74098 0.22387,0.0108 4.93906,-1.87682 10.4782,-4.194772 z m -14.9355,-4.6624 c 0.95818,-2.39034 1.67206,-4.41292 1.58642,-4.4946 -0.0856,-0.0817 -1.80603,-0.22542 -3.82308,-0.31939 -3.38386,-0.15764 -3.6613,-0.0907 -3.58884,0.866 0.52175,6.88848 0.79181,8.0483 1.92447,8.26504 1.92194,0.36778 2.10378,0.16654 3.90103,-4.31705 z m 5.18574,-12.33203 2.20942,-5.22962 -1.86928,-1.71219 c -1.0281,-0.9417 -1.96262,-1.71219 -2.07672,-1.71219 -0.28201,0 -9.15589,4.07162 -10.13906,4.65212 -0.43222,0.2552 -0.74571,0.78638 -0.69665,1.18038 0.0491,0.39401 0.24316,2.29379 0.43131,4.22174 0.39699,4.0678 0.33264,4.02598 6.01529,3.90959 l 3.91626,-0.0802 z m -13.97128,3.73101 c 0,-2.38127 -0.6703,-6.09809 -1.09975,-6.09809 -0.23838,0 -2.32818,0.86411 -4.64398,1.92025 -4.0916701,1.86603 -4.7934101,2.63934 -3.8050201,4.19307 0.42141,0.66245 2.4728501,1.00572 6.7982301,1.13757 2.56493,0.0782 2.75052,4.1e-4 2.75052,-1.1528 z m -5.63203,-6.52274 c 2.52132,-1.18046 4.58243,-2.45192 4.58026,-2.82548 -0.002,-0.37356 -0.23269,-2.09375 -0.51225,-3.82266 -0.27956,-1.7289 -0.87429,-5.97257 -1.32163,-9.43038 -1.02605,-7.93119 -1.08826,-8.1206 -2.66715,-8.1206 -0.77411,0 -1.40236,0.36704 -1.56931,0.91684 -0.31235,1.02867 -0.95286,2.77475 -5.1409201,14.01459 l -2.9282,7.85866 2.12826,1.97475 c 1.17054,1.08612 2.28992,1.88606 2.48749,1.77765 0.19758,-0.10841 2.4221301,-1.16293 4.9434501,-2.34337 z m -96.611651,75.636706 c -0.65904,-1.44643 0.10742,-5.44437 1.43722,-7.49667 0.91853,-1.4176 2.50232,-1.61259 2.12764,-0.26196 -0.13989,0.50426 -0.41539,2.3314 -0.61222,4.0603 -0.54919,4.82393 -1.75285,6.33158 -2.95264,3.69833 z m -11.92712,-5.74386 c -0.92756,-1.11764 -0.16823,-3.16413 2.15213,-5.8002 2.91436,-3.31088 5.10314,-3.15653 4.34259,0.30625 -0.35397,1.61162 -4.30846,6.22971 -5.33453,6.22971 -0.30226,0 -0.82435,-0.33109 -1.16019,-0.73576 z m -9.646612,-9.56781 c -0.87252,-0.87252 -0.15834,-2.34929 2.09565,-4.33332 3.835232,-3.37591 6.788922,-3.46302 5.637812,-0.16627 -0.84231,2.41236 -6.518242,5.71481 -7.733462,4.49959 z m -3.75468,-7.50937 c 0.88777,-0.98098 0.89236,-1.10959 0.0719,-2.01617 -0.83575,-0.92349 -0.65751,-1.12101 3.84812,-4.26428 4.88742,-3.40963 5.499352,-4.38192 3.75267,-5.96264 -0.92287,-0.83519 -1.29542,-0.64806 -7.40022,3.71715 -3.53563,2.52814 -6.54543,4.90009 -6.68844,5.27101 -0.3382,0.87718 1.08546,2.42519 3.18063,3.45847 2.11501,1.04305 2.10669,1.04357 3.23531,-0.20354 z m -6.9426,-11.67894 c -0.87515,-0.97403 -0.8687,-1.05121 0.14448,-1.72847 4.92738,-3.29373 8.32537,-5.80165 8.45353,-6.23922 0.0844,-0.28815 -0.28019,-1.08835 -0.81019,-1.77822 l -0.96365,-1.25431 -6.86285,4.65973 c -3.77456,2.56284 -6.87173,4.91332 -6.88259,5.22328 -0.0259,0.73988 1.93624,2.50791 3.90957,3.52276 1.47245,0.75725 1.64615,0.73901 2.74975,-0.28884 1.12705,-1.04969 1.13839,-1.14126 0.26195,-2.11671 z m -6.66314,-9.82714 c 0.18493,-0.29923 0.0687,-0.86637 -0.25822,-1.26032 -0.76057,-0.91643 -0.49875,-1.08453 5.47662,-3.51625 4.41982,-1.798684 4.71293,-2.012474 4.60936,-3.361914 -0.0608,-0.79259 -0.37783,-1.60622 -0.70442,-1.80807 -0.32659,-0.20184 -2.63441,0.44939 -5.12849,1.4472 -2.49408,0.9978 -5.89009,2.32217 -7.5467,2.943044 -3.69699,1.38555 -3.85884,2.32008 -0.89079,5.14352 1.73961,1.65486 2.301,1.92305 3.11428,1.4878 0.54567,-0.29203 1.14343,-0.77579 1.32836,-1.07501 z m 3.74832,-12.582986 c 4.99258,-1.89164 5.58028,-7.47831 1.07346,-10.20436 -2.38903,-1.44506 -9.3614,-1.45776 -11.73487,-0.0214 -4.12508,2.49642 -3.52437,8.03087 1.08972,10.03985 1.95241,0.85008 7.53266,0.95845 9.57169,0.18589 z m -8.09812,-3.62479 c -1.50029,-0.63824 -2.00047,-1.88513 -1.16164,-2.89585 1.02371,-1.23351 7.38596,-1.06702 8.97387,0.23482 1.17083,0.95991 1.18875,1.06291 0.33586,1.93009 -1.04735,1.06488 -6.26321,1.53279 -8.14809,0.73094 z m 1.45237,-11.27174 c 0,-1.55743 -0.36201,-1.54086 5.47451,-0.25062 6.66347,1.47303 7.09933,1.42851 7.09933,-0.72519 v -1.76168 l -5.37008,-1.17953 c -9.87242,-2.16846 -10.45946,-2.24845 -10.93988,-1.49075 -0.6586,1.03874 -0.54511,2.86856 0.30397,4.90068 0.58497,1.40002 1.06577,1.81686 2.09564,1.81686 1.07634,0 1.33651,-0.25497 1.33651,-1.30977 z m 10.67347,-8.16591 c 2.93207,-0.81413 4.51992,-2.73854 4.51992,-5.47799 0,-1.89121 -0.27781,-2.47073 -1.84329,-3.84525 -2.30048,-2.01984 -3.71209,-2.41944 -8.54699,-2.41944 -3.67636,0 -3.90708,0.0735 -5.37008,1.71098 -1.61419,1.80668 -2.03465,4.48526 -1.00583,6.40764 1.64738,3.07814 7.72978,4.87813 12.24627,3.62406 z m -7.69303,-4.46243 c -1.04261,-0.56521 -1.42518,-1.13294 -1.30978,-1.94369 0.14354,-1.00839 0.53315,-1.16436 3.25977,-1.30491 3.20515,-0.16523 5.56054,0.48421 6.68942,1.84442 0.53348,0.64281 0.47061,0.91918 -0.34472,1.51537 -1.32792,0.971 -6.42444,0.90268 -8.29469,-0.11119 z m 1.10552,-10.99629 c 0.14384,-1.00698 0.35772,-1.06158 2.61955,-0.6687 1.3546,0.23529 3.40595,0.66415 4.55855,0.95302 3.63719,0.91157 4.82047,0.7219 5.21131,-0.83534 0.19126,-0.76205 0.15788,-1.5689 -0.0742,-1.79299 -0.23206,-0.22409 -2.19013,-0.77452 -4.35126,-1.22318 -2.16113,-0.44866 -5.66849,-1.18363 -7.79414,-1.63328 -2.12565,-0.44963 -4.01173,-0.67052 -4.19128,-0.49084 -0.5528,0.55315 -0.26852,4.64181 0.41102,5.91153 0.84246,1.57416 3.37618,1.4196 3.61043,-0.22022 z m 15.01621,-8.05263 c 2.19115,-2.05848 2.03352,-5.69099 -0.35987,-8.29314 -2.93461,-3.19057 -10.14855,-4.86159 -12.84236,-2.97478 -1.62945,1.14131 -2.32932,4.05945 -1.54693,6.45 0.46207,1.4118 1.38651,2.42728 3.5073,3.85265 1.58391,1.06455 3.46924,2.04297 4.18962,2.17426 2.68906,0.49012 5.81384,-0.0456 7.05224,-1.20899 z m -7.3142,-3.35558 c -3.03499,-1.42554 -4.71248,-3.0911 -4.27126,-4.2409 0.64707,-1.68624 5.90914,-0.28066 8.59352,2.29546 1.34661,1.2923 1.42956,1.67793 0.55011,2.55739 -0.9047,0.9047 -1.913,0.77806 -4.87237,-0.61195 z m 14.384532,-8.01754 c 0.60548,-0.76975 0.91729,-1.57978 0.69291,-1.80008 -0.22437,-0.2203 -3.117692,-2.65152 -6.429592,-5.40272 l -6.02164,-5.00218 -1.12574,1.17022 c -0.64731,0.67289 -1.27069,2.20128 -1.46681,3.59629 -0.32419,2.30601 -0.27237,2.44332 1.04714,2.77449 0.9924,0.24908 1.57223,0.0967 2.03365,-0.53429 0.57977,-0.79289 1.05237,-0.55279 4.64468,2.3597 2.19958,1.78333 4.13769,3.46644 4.30692,3.74026 0.50955,0.82447 1.15951,0.5717 2.318482,-0.90169 z m 7.76982,-8.17377 1.11864,-1.19073 -5.89159,-6.2228 -5.891592,-6.2228 -1.42264,1.69072 c -0.78246,0.9299 -1.42587,1.96733 -1.4298,2.30541 -0.004,0.33808 -0.14757,1.13847 -0.31918,1.77864 -0.24291,0.90614 -0.007,1.30282 1.06377,1.79082 1.16534,0.53097 1.47764,0.48757 2.04159,-0.28368 0.60012,-0.82071 1.05145,-0.49828 4.575422,3.26872 2.15029,2.29859 4.16322,4.20112 4.47318,4.22784 0.30996,0.0267 1.06695,-0.48723 1.6822,-1.14214 z m 8.93404,-7.20009 c 0.67403,-0.56167 1.14555,-1.20216 1.04782,-1.42332 -0.60641,-1.37225 -10.07943,-12.7139903 -10.61917,-12.7139903 -0.92651,0 -2.21633,1.54169 -3.14069,3.75399 -0.7231,1.7306203 -0.71085,1.9502503 0.15225,2.7313503 1.18529,1.07267 1.98596,1.07781 2.57987,0.0166 0.37364,-0.66767 1.21926,0.11164 4.26371,3.92933 2.0887,2.61918 3.95358,4.75432 4.14417,4.74473 0.19059,-0.01 0.89801,-0.47698 1.57204,-1.03865 z m 8.54562,-7.89256 c 1.53597,-0.82202 2.64709,-3.8353903 2.23135,-6.0514503 -0.73647,-3.9257299 -8.05404,-9.22022 -11.53564,-8.3464 -2.04388,0.51299 -4.39617,3.23433001 -4.39617,5.0859201 0,3.2428299 3.29636,7.3835602 7.33474,9.2135702 1.69613,0.7686 5.01747,0.81992 6.36572,0.0984 z m -5.31295,-4.0732803 c -2.31493,-1.24151 -4.95641,-4.4674299 -4.54212,-5.5470699 0.17215,-0.44862 0.89148,-0.81568 1.5985,-0.81568 1.56715,0 5.50844,2.91494 6.59707,4.8791399 0.70594,1.27368 0.70694,1.49032 0.009,1.93682 -1.10961,0.70985 -1.609,0.64805 -3.66241,-0.45321 z m 14.06095,-8.11161999 1.15079,-1.22496001 -6.33677,-5.32392 c -3.48521,-2.92815 -6.51879,-5.3239097 -6.74127,-5.3239097 -0.94953,0 -2.24941,2.1780797 -2.52468,4.2303597 -0.23768,1.77205 -0.10375,2.35753 0.66845,2.92217 1.39391,1.01926 2.24004,0.87024 2.43167,-0.42827 0.14956,-1.01337 0.66345,-0.7339 4.81689,2.61955 2.55721,2.06467001 4.81476,3.75394 5.0168,3.75394 0.20203,0 0.88518,-0.55122999 1.51812,-1.22495999 z M 32.577293,-2.4608463 c 2.40862,-1.5275 5.32894,-5.33268 5.93611,-7.7347297 0.44728,-1.76953 -0.21997,-3.73757 -1.74701,-5.15278 -3.59838,-3.33486 -10.37743,-0.0261 -13.04964,6.3694397 -1.1304,2.70542 -0.59816,5.08296 1.50981,6.74443 2.2275,1.75568001 4.32735,1.69101001 7.35073,-0.22636 z m -5.39713,-2.87842 c -1.37135,-1.65238 3.50409,-7.6068397 6.2284,-7.6068397 0.8651,0 1.09793,0.3259 1.09793,1.53681 0,1.13362 -0.67834,2.2332297 -2.58554,4.1912797 -2.70988,2.78214 -3.67396,3.1642 -4.74079,1.87875 z m -85.365447,-1.27962 c 2.10907,-2.10907 2.12135,-5.2047597 0.0335,-8.4512597 -1.90246,-2.95825 -3.50905,-4.42436 -5.97937,-5.45652 -2.414664,-1.00891 -4.020274,-0.65003 -5.908234,1.32057 -2.69513,2.81311 -1.69417,7.37393 2.47981,11.2991297 2.39145,2.2489 3.507904,2.78507 5.837874,2.80358 1.53019,0.0122 2.36762,-0.34672 3.5364,-1.5155 z m -5.77274,-3.22374 c -2.122154,-1.7857897 -3.697944,-4.2678997 -3.697944,-5.8248097 0,-2.36021 1.86951,-1.90441 4.843294,1.18084 1.97883,2.053 2.51831,2.96865 2.39225,4.0603 -0.20711,1.7935997 -1.78952,2.0546797 -3.5376,0.5836697 z m 14.59255,-2.4209997 c 0.47001,-0.33392 -4.97201,-15.8641 -5.56103,-15.86979 -1.19649,-0.0115 -3.04112,1.14551 -4.26716,2.67662 -1.17464,1.4669 -1.19076,1.59605 -0.35789,2.86717 0.72462,1.10592 1.00592,1.22007 1.6629,0.67482 1.02681,-0.85218 1.32529,-0.36905 3.11329,5.03938 1.99949,6.04811 2.04703,6.11606 3.76353,5.37919 0.78692,-0.33782 1.52778,-0.68314 1.64636,-0.76739 z m 75.040387,-3.6144 c 7.78014,-5.2038 7.70996,-5.13253 6.43896,-6.5379 -0.55704,-0.61593 -1.86607,-1.55538 -2.90897,-2.08765 l -1.89616,-0.96778 -1.19479,1.27181 c -1.05344,1.12133 -1.09254,1.31105 -0.33046,1.60349 0.47539,0.18242 0.86435,0.52926 0.86435,0.77075 0,0.2415 -2.12184,1.89235 -4.71519,3.66858 -2.59336,1.77622 -4.7152,3.45499 -4.7152,3.73059 0,0.98386 1.097,2.52785 1.79604,2.52785 0.39124,0 3.38888,-1.79088 6.66142,-3.97974 z m -65.97093,1.4086 c 1.60855,-1.43724 1.7155,-1.75709 1.89277,-5.6606 0.23769,-5.23389 -1.06248,-8.48856 -3.93563,-9.85195 -1.62779,-0.77244 -2.078307,-0.79093 -3.751867,-0.15397 -1.06417,0.40503 -2.44453,1.52339 -3.13375,2.53897 -2.39172,3.52417 -0.78389,12.26793 2.57219,13.98826 2.1814,1.11819 4.491627,0.80536 6.356287,-0.86071 z m -5.092707,-3.37866 c -1.16172,-1.77302 -1.17789,-7.5102 -0.0244,-8.64388 0.81449,-0.80047 0.94431,-0.77933 1.827967,0.29761 0.52317,0.6376 1.10868,2.41961 1.30115,3.96 0.58826,4.70833 -1.21993,7.26287 -3.104757,4.38627 z m 17.188557,3.36639 c 0.23347,-0.22749 -0.29699,-3.90576 -1.1788,-8.17393 -0.88181,-4.26817 -1.6033,-7.83751 -1.6033,-7.93186 0,-0.0944 -0.61441,-0.17156 -1.36536,-0.17156 -0.75095,0 -2.28041,0.72473 -3.39881,1.61052 -2.00595,1.58875 -2.02267,1.63137 -1.23619,3.15226 0.67837,1.31181 0.95201,1.45892 1.83486,0.98644 0.77757,-0.41615 1.09166,-0.38553 1.25335,0.12217 0.26755,0.84012 2.38824,10.80955 2.38824,11.22723 0,0.39828 2.75738,-0.2867 3.30601,-0.82127 z m 11.61575,-2.65201 c 1.51506,-0.57603 1.51469,-0.87786 -0.009,-7.60037 -0.39196,-1.72891 -0.97732,-4.49908 -1.3008,-6.15595 -0.53112,-2.72053 -0.71684,-3.01248 -1.91633,-3.01248 -0.73052,0 -2.24327,0.72473 -3.36167,1.61052 -2.00595,1.58875 -2.02267,1.63137 -1.23619,3.15226 0.67837,1.31181 0.95201,1.45892 1.83485,0.98643 0.77758,-0.41614 1.09167,-0.38552 1.25335,0.12218 0.24565,0.77132 2.38825,10.7928 2.38825,11.17043 0,0.39114 0.86585,0.29046 2.34792,-0.27302 z m 33.61021,-0.48494 c 4.57301,-2.78849 7.41824,-10.29381 5.13701,-13.55073 -1.19673,-1.70856 -3.75613,-2.88183 -5.3947,-2.47302 -4.82552,1.20393 -9.3827701,9.88121 -7.2925501,13.88546 0.6883901,1.31877 3.6633501,3.14281 5.1223501,3.14069 0.43223,-6.3e-4 1.52478,-0.45171 2.42789,-1.0024 z m -3.97875,-3.42292 c -0.74215,-0.89424 -0.4113,-2.21846 1.39806,-5.5958 1.46239,-2.72966 3.37381,-3.98101 4.32686,-2.83266 1.08331,1.30531 -0.92079,6.26108 -3.3406,8.26069 -1.34505,1.11148 -1.58698,1.1285 -2.38432,0.16777 z m -17.9473901,2.5626 c 1.88325,-1.31907 2.73313,-3.56199 2.73313,-7.21294 0,-4.99692 -1.88247,-8.51825 -5.06967,-9.48326 -1.70078,-0.51496 -4.7161799,0.97739 -5.9482499,2.94384 -2.22287,3.54782 -0.5613,12.31371 2.63536,13.90328 1.7989599,0.89455 4.2503099,0.82907 5.6494299,-0.15092 z m -4.30995,-4.01409 c -1.1508299,-1.64305 -1.1294299,-7.87721 0.0303,-8.83974 0.72355,-0.60049 0.97978,-0.53672 1.77136,0.44084 1.93953,2.3952 1.9198,9.56329 -0.0263,9.56329 -0.52789,0 -1.32681,-0.52398 -1.77538,-1.16439 z m 15.53043,-2.50298 c 0.0576,-3.45781 0.11657,-7.17102 0.13097,-8.25158 0.025,-1.87463 -0.0578,-1.97121 -1.80749,-2.10743 -1.11515,-0.0868 -2.4759,0.25423 -3.47262,0.87037 -1.3218,0.81708 -1.58878,1.27556 -1.37968,2.36938 0.19446,1.01724 0.5785,1.35625 1.53637,1.35625 h 1.27711 l -0.059,5.63203 c -0.0325,3.09762 -0.0453,5.80886 -0.0284,6.02497 0.0168,0.21611 0.85577,0.39293 1.8643,0.39293 h 1.83368 l 0.10479,-6.28692 z"
       id="path21"
       inkscape:connector-curvature="0" />
  </g>
</svg>
